<svg width="24" height="24" fill="none" xmlns="http://www.w3.org/2000/svg"><path d="M17.628 3.065a2.58 2.58 0 0 0-3.9.294 3.132 3.132 0 0 0-2.766 5.296l1.314 1.314-1.247 1.248 1.775 1.774 1.248-1.246 1.315 1.314a3.132 3.132 0 0 0 5.298-2.763 2.58 2.58 0 0 0 .293-3.9l-.779-.78.681-.681a1.255 1.255 0 0 0-1.774-1.774l-.681.68-.779-.778.002.002zm.423 5.6a.75.75 0 0 1-1.062 0l-1.655-1.654a.75.75 0 0 1 1.06-1.062l1.657 1.656a.75.75 0 0 1 0 1.06zM4.225 10.965a3.133 3.133 0 0 1 4.43 0l4.405 4.405a3.132 3.132 0 0 1-2.764 5.298 2.58 2.58 0 0 1-3.9.292l-.779-.776-.703.703a1.256 1.256 0 0 1-1.776-1.776l.705-.705-.78-.777a2.58 2.58 0 0 1 .294-3.9 3.127 3.127 0 0 1 .87-2.764h-.002zm3.897 6.57-1.654-1.656a.75.75 0 0 0-1.06 1.06l1.654 1.655a.75.75 0 1 0 1.06-1.061v.002z" fill="#000"/></svg>