<svg viewbox="0 0 24 24" xmlns="http://www.w3.org/2000/svg"><path fill-rule="evenodd" clip-rule="evenodd" d="M5.043 3.486a.5.5 0 0 0-.541-.456l-.996.085a.5.5 0 0 0-.456.54l.164 1.935a.5.5 0 0 0 .073.862l.175 2.061a.5.5 0 0 0 .54.456L5 8.884a.5.5 0 0 0 .456-.54L5.27 6.171c.255-.045.505-.089.752-.13.053.825.205 2.225.486 3.543.18.84.426 1.717.768 2.407.17.344.391.696.684.974.258.246.608.463 1.04.52v2.167l-.163-.059-.111-.04c-.503-.18-1.013-.363-1.403-.462-.19-.047-.476-.11-.757-.085-.24.018-.469.108-.657.258a1.11 1.11 0 0 0-.409.867c0 .412.14 1.47.26 2.316.074.522.15 1.043.23 1.565l.016.104.005.027v.01L7 20l-.988.154a1 1 0 0 0 1.985-.083l.185-2.588c.556.199 1.204.428 1.845.608.636.18 1.335.33 1.973.33.639 0 1.337-.15 1.973-.33a28.09 28.09 0 0 0 1.83-.603l.2 2.588a1 1 0 0 0 1.985.078L17 20l.988.153v-.002l.002-.008.004-.027.016-.105c.08-.52.157-1.042.23-1.564.12-.845.26-1.904.26-2.315a1.11 1.11 0 0 0-.409-.868 1.202 1.202 0 0 0-.657-.258c-.281-.025-.568.037-.757.085-.39.099-.9.282-1.402.462l-.112.04-.163.059v-2.164c.945-.105 1.517-.871 1.833-1.481.366-.706.605-1.598.767-2.443.254-1.32.354-2.705.386-3.516.244.04.492.082.744.127l-.186 2.17a.5.5 0 0 0 .457.54l.996.084a.5.5 0 0 0 .54-.456l.175-2.06a.499.499 0 0 0 .074-.863l.165-1.935a.5.5 0 0 0-.457-.54l-.996-.085a.5.5 0 0 0-.54.456l-.143 1.688a60.56 60.56 0 0 0-.939-.157 1 1 0 0 0-1.58-.227c-3.039-.383-5.611-.383-8.597-.005a1 1 0 0 0-1.572.227c-.308.049-.621.102-.941.159l-.143-1.685zm3.421 5.68a24.247 24.247 0 0 1-.456-3.412c2.766-.337 5.173-.337 7.988.007-.02.666-.104 2.097-.36 3.425-.15.78-.345 1.45-.579 1.901-.159.306-.268.393-.303.413H9.322a1.656 1.656 0 0 1-.254-.397c-.231-.466-.436-1.152-.604-1.937zm5.786-.916a2.25 2.25 0 1 1-4.5 0 2.25 2.25 0 0 1 4.5 0z" fill="#000"/></svg>