<svg width="24" height="24" fill="none" xmlns="http://www.w3.org/2000/svg"><path d="M12 8.876A3.13 3.13 0 0 0 8.876 12 3.13 3.13 0 0 0 12 15.124 3.13 3.13 0 0 0 15.124 12 3.13 3.13 0 0 0 12 8.876zM21.37 12c0-1.294.012-2.576-.06-3.867-.073-1.5-.415-2.831-1.512-3.928-1.1-1.1-2.428-1.44-3.928-1.512-1.294-.073-2.576-.061-3.867-.061-1.294 0-2.576-.012-3.868.061-1.5.073-2.831.415-3.928 1.512-1.1 1.099-1.439 2.428-1.512 3.928-.072 1.294-.06 2.576-.06 3.867s-.012 2.576.06 3.867c.073 1.5.415 2.831 1.512 3.928 1.1 1.1 2.428 1.44 3.928 1.512 1.294.073 2.576.061 3.867.061 1.294 0 2.576.012 3.868-.061 1.5-.073 2.83-.415 3.928-1.512 1.099-1.099 1.439-2.428 1.512-3.928.075-1.291.06-2.573.06-3.867zM12 16.807A4.8 4.8 0 0 1 7.193 12 4.8 4.8 0 0 1 12 7.193 4.8 4.8 0 0 1 16.807 12 4.8 4.8 0 0 1 12 16.807zm5.004-8.688a1.121 1.121 0 0 1-1.123-1.123c0-.621.502-1.123 1.123-1.123a1.121 1.121 0 0 1 .43 2.16 1.121 1.121 0 0 1-.43.086z" fill="#000"/></svg>