<svg width="24" height="24" fill="none" xmlns="http://www.w3.org/2000/svg"><path d="m23.297 12.797-7.875 7.875c-.703.703-1.922.21-1.922-.797v-4.5H7.125A1.122 1.122 0 0 1 6 14.25v-4.5c0-.623.502-1.125 1.125-1.125H13.5v-4.5c0-1.003 1.214-1.5 1.922-.797l7.875 7.875c.436.44.436 1.153 0 1.594zM9 20.437v-1.875A.564.564 0 0 0 8.437 18H4.5c-.83 0-1.5-.67-1.5-1.5v-9C3 6.67 3.67 6 4.5 6h3.938C8.746 6 9 5.747 9 5.438V3.563A.564.564 0 0 0 8.437 3H4.5A4.501 4.501 0 0 0 0 7.5v9C0 18.984 2.016 21 4.5 21h3.938c.309 0 .562-.253.562-.563z" fill="#000"/></svg>