<svg width="24" height="24" fill="none" xmlns="http://www.w3.org/2000/svg"><path d="M23.205 11.745a12.3 12.3 0 0 0-4.297-5.587l3.592-3.6L21.442 1.5 1.5 21.442 2.558 22.5l3.825-3.817A11.535 11.535 0 0 0 12 20.25a12.517 12.517 0 0 0 11.205-7.995.75.75 0 0 0 0-.51zM12 16.875a4.845 4.845 0 0 1-2.873-.945l1.373-1.357a3 3 0 0 0 4.072-4.073l1.358-1.357A4.867 4.867 0 0 1 12 16.875zM3.397 16.358l3.75-3.75A5.13 5.13 0 0 1 7.125 12a4.883 4.883 0 0 1 5.467-4.838l2.835-2.827A10.792 10.792 0 0 0 12 3.75 12.518 12.518 0 0 0 .795 11.745a.75.75 0 0 0 0 .51 11.895 11.895 0 0 0 2.602 4.103z" fill="#000"/></svg>