<svg xmlns="http://www.w3.org/2000/svg" width="150" height="150" viewBox="0 0 135.758 134.944"><path style="opacity:1;fill:#32393f;fill-opacity:1;stroke:#000;stroke-width:.00188988;stroke-linecap:round;stroke-linejoin:round" d="M136.929 138.46v7.733s21.113.295 32.152 0c5.15-.013 4.956-7.693 0-7.733z" transform="translate(-69.05 -11.381)"/><path style="opacity:1;fill:#fabe2c;fill-opacity:1;stroke:#000;stroke-width:.00377976;stroke-linecap:round;stroke-linejoin:round" d="M136.929 11.424c-.242 37.797-.175 75.596 0 113.393 9.234.059 18.471.126 27.705-.088-8.877-10.06-15.002-23.042-15.26-36.616A42.29 42.29 0 0 0 164.71 75.42c30.811-8.397 38.863-18.158 40.095-53.821-1.73-2.856-5.345-2.077-8.286-2.317h-15.88c1.234-4.328-2.8-8.183-7.46-7.848-12.077-.128-24.17.03-36.251-.01zm60.098 15.955c.152 16.706-1.793 31.486-25.952 38.323 5.792-10.47 8.517-22.262 9.21-37.27z" transform="translate(-69.05 -11.381)"/><path style="opacity:1;fill:#fed843;fill-opacity:1;stroke:#000;stroke-width:.00377976;stroke-linecap:round;stroke-linejoin:round" d="M136.929 11.424c.241 37.797.174 75.596 0 113.393-9.235.059-18.472.126-27.706-.088 8.877-10.06 15.002-23.042 15.26-36.616a42.291 42.291 0 0 1-15.336-12.693C78.335 67.023 70.283 57.262 69.052 21.6c1.73-2.856 5.344-2.077 8.285-2.317h15.88c-1.234-4.328 2.8-8.183 7.46-7.848 12.077-.128 24.17.03 36.252-.01zM76.83 27.38c-.152 16.706 1.793 31.486 25.952 38.323-5.792-10.47-8.517-22.262-9.21-37.27z" transform="translate(-69.05 -11.381)"/><path style="opacity:1;fill:#ff9100;fill-opacity:1;stroke:#000;stroke-width:.00188988;stroke-linecap:round;stroke-linejoin:round" d="M137.001 30.168c.063 9.684-.116 19.37.13 29.051 1.915 1.495 7.303 4.062 8.925 3.721 4.72-1.505 2.672-7.8 1.883-11.251 2.21-3.06 8.066-6.693 5.48-10.41-2.511-2.529-6.643-1.83-9.56-2.717-2.504-3.252-2.75-7.983-6.858-8.394z" transform="translate(-69.05 -11.381)"/><path style="opacity:1;fill:#fabe2c;fill-opacity:1;stroke:#000;stroke-width:.00188988;stroke-linecap:round;stroke-linejoin:round" d="M137.001 30.168c-.062 9.684.117 19.37-.129 29.051-1.916 1.495-7.304 4.062-8.925 3.721-4.72-1.505-2.672-7.8-1.884-11.251-2.21-3.06-8.066-6.693-5.48-10.41 2.512-2.529 6.644-1.83 9.56-2.717 2.504-3.252 2.75-7.983 6.858-8.394z" transform="translate(-69.05 -11.381)"/><path style="opacity:1;fill:#474f54;fill-opacity:1;stroke:#000;stroke-width:.0029288;stroke-linecap:round;stroke-linejoin:round" d="M136.929 124.817h27.884v13.642h-27.884z" transform="translate(-69.05 -11.381)"/><path style="opacity:1;fill:#646d73;fill-opacity:1;stroke:#000;stroke-width:.0029288;stroke-linecap:round;stroke-linejoin:round" d="M109.045 124.817h27.884v13.642h-27.884z" transform="translate(-69.05 -11.381)"/><path style="opacity:1;fill:#474f54;fill-opacity:1;stroke:#000;stroke-width:.00188988;stroke-linecap:round;stroke-linejoin:round" d="M136.929 138.46v7.733s-21.114.295-32.153 0c-5.15-.013-4.956-7.693 0-7.733z" transform="translate(-69.05 -11.381)"/></svg>