<svg width="414" height="280" fill="none" xmlns="http://www.w3.org/2000/svg"><path d="M206.751 197.145C4.501 196.222-2 268-2 268V0h416v268s-5-69.931-207.249-70.855z" fill="#10A37A"/><path d="M248.729 97.755h-34.838V57.724h34.838v40.031zM287.323 97.755h-34.837V57.724h34.837v40.031zM248.729 141.178h-34.838v-40.031h34.838v40.031zM287.323 141.178h-34.837v-40.031h34.837v40.031z" fill="#C2EBE9"/><path d="M208.718 238.144c-3.887-9.607-3.863-20.738.068-30.329.279-.68.631-1.408 1.3-1.716 1.428-.655 2.777 1.027 3.412 2.459a61.27 61.27 0 0 1 5.221 26.242c1.56-9.86 3.857-20.278 10.917-27.337.42-.42.889-.846 1.476-.943 1.525-.255 2.41 1.686 2.552 3.226.332 3.647-.372 7.308-1.203 10.872a146.182 146.182 0 0 1-5.006 16.822c5.671-7.949 12.911-15.468 22.326-18.058 1.125-.309 2.522-.465 3.28.42.704.826.44 2.083.03 3.084-1.198 2.929-3.247 5.432-5.422 7.725-4.756 5.02-10.236 9.283-15.692 13.526 3.153-.406 6.316-.758 9.484-1.056 4.311-.401 8.936-.635 12.69 1.53 1.007.577 1.98 1.413 2.191 2.552.42 2.234-2.142 3.784-4.308 4.478a54.62 54.62 0 0 1-14.176 2.532c3.486.489 7 1.066 10.246 2.43 3.246 1.368 6.233 3.612 7.861 6.732.67 1.28.978 3.098-.181 3.959-.396.293-.89.405-1.378.469-1.794.225-3.608-.185-5.344-.704-7.215-2.165-13.766-6.297-21.093-8.047a34.094 34.094 0 0 0-18.855.915c-.499.171-1.052.352-1.541.146-.283-.117-.498-.352-.703-.582a64.297 64.297 0 0 1-14.094-25.82c-.386-1.418-.543-3.305.758-3.994 1.232-.655 12.113 5.396 15.184 8.467z" fill="#8B88CC"/><path d="M248.423 261.421a53.585 53.585 0 0 0-14.594-6.376 53.001 53.001 0 0 0-3.434-.789l8.391-2.212 4.634-1.222c1.256-.331 2.793-.549 3.727-1.543.758-.807.96-2.139.051-2.915-.885-.757-2.244-.675-3.331-.694-3.175-.058-6.353.029-9.52.26-3.234.237-6.456.633-9.654 1.167a110.05 110.05 0 0 0 8.746-7.068 110.732 110.732 0 0 0 10.627-10.961c.53-.638 1.143-1.529.76-2.388-.307-.688-1.146-.963-1.849-.842-.944.163-1.728.865-2.473 1.419a113.554 113.554 0 0 0-18.021 16.709l-.096.111a145.296 145.296 0 0 0 3.818-11.502 144.652 144.652 0 0 0 3.108-13.216c.191-1.027.449-2.078.517-3.121.047-.717-.046-1.561-.713-1.978-.756-.473-1.707-.072-2.228.56-.303.367-.504.807-.685 1.244a139.306 139.306 0 0 0-4.946 14.342 138.301 138.301 0 0 0-3.046 13.056c-.37-3.742-.892-7.47-1.59-11.166a128.515 128.515 0 0 0-3.051-12.65c-.269-.907-.475-1.919-.993-2.724-.43-.669-1.224-1.174-2.043-.993-.78.173-1.13.928-1.195 1.66-.085.96.067 1.958.145 2.915a135.092 135.092 0 0 0 4.624 25.734l.182.632a67.755 67.755 0 0 0-6.428-5.868 67.011 67.011 0 0 0-3.877-2.878c-1.15-.792-2.336-1.7-3.719-2.032-1.183-.285-2.483.094-2.894 1.346-.406 1.233.167 2.577.661 3.694a43.326 43.326 0 0 0 4.418 7.707 43.38 43.38 0 0 0 6.774 7.423c.238.207.552-.167.314-.374a42.855 42.855 0 0 1-10.334-13.4 42.3 42.3 0 0 1-.897-1.948c-.254-.59-.478-1.203-.553-1.843-.069-.602.001-1.246.431-1.708.416-.447 1.021-.566 1.607-.488 1.35.178 2.514 1.068 3.606 1.811a67.874 67.874 0 0 1 11.237 9.61c.183.194.448-.064.387-.272a134.823 134.823 0 0 1-2.99-12.219 135.145 135.145 0 0 1-2.108-15.556c-.065-.85-.251-1.814-.03-2.654.098-.369.328-.708.715-.809.414-.108.87.067 1.185.337.685.588.884 1.627 1.132 2.45a128.12 128.12 0 0 1 4.971 26.083c.023.273.437.298.484.023a138.802 138.802 0 0 1 2.756-12.639 137.797 137.797 0 0 1 5.105-15.395c.336-.844.635-2.04 1.471-2.535.383-.226.906-.293 1.26.024.279.25.357.644.376 1.002.022.412-.045.818-.113 1.222a144.516 144.516 0 0 1-3.169 14.273 143.684 143.684 0 0 1-4.618 13.928c-.097.251.222.483.408.261a113.607 113.607 0 0 1 8.058-8.594 112.27 112.27 0 0 1 11.266-9.49c.697-.513 1.535-1.24 2.468-1.024.407.094.758.381.801.817.045.465-.241.921-.506 1.278-.576.777-1.253 1.495-1.894 2.22a109.038 109.038 0 0 1-8.249 8.391 109.948 109.948 0 0 1-10.214 8.259c-.186.133-.086.486.162.443a104.983 104.983 0 0 1 20.219-1.588c.598.012 1.202.005 1.792.114.498.091 1.032.272 1.338.701.349.49.25 1.123-.041 1.615-.68 1.148-2.282 1.373-3.458 1.683-1.466.386-2.933.774-4.399 1.159l-9.971 2.63c-.241.063-.183.429.041.469a53.22 53.22 0 0 1 15.063 5.113 53.11 53.11 0 0 1 3.564 2.032c-.927.724-2.156.828-3.301.679-1.425-.185-2.775-.705-4.122-1.176l-9.826-3.442-5.574-1.954c-.294-.103-.506.339-.209.442l10.343 3.624 5.172 1.811c1.349.473 2.702.99 4.128 1.176 1.436.187 2.911.001 3.996-1.035.126-.121.035-.304-.083-.378z" fill="#4A54AE"/><path d="m172.709 251.972.025-.002c.182 2.9.364 5.794.541 8.691-3.576-1.618-7.615-1.841-11.54-1.893-7.068-.094-14.136.286-21.196.684-4.265.237-8.82.412-12.49-1.77-.394-.237-.793-.516-.976-.939-.449-1.023.581-2.072 1.564-2.603 3.491-1.868 7.651-1.877 11.605-1.7a54.943 54.943 0 0 1-9.166-4.937c-1.051-.707-2.208-1.918-1.629-3.041.249-.478.755-.757 1.244-.982 3.028-1.383 6.485-1.623 9.788-1.172 3.302.453 6.473 1.564 9.568 2.797-3.86-5.167-7.854-10.675-8.542-17.086-.113-1.045-.13-2.129.225-3.114.35-.991 1.136-1.874 2.157-2.106.885-.205 1.806.096 2.627.475 3.57 1.659 6.164 4.854 8.415 8.086a90.912 90.912 0 0 1 4.411 6.971c.145-5.272.317-10.672 2.307-15.554.607-1.498 1.807-3.157 3.402-2.911.946.152 1.646.95 2.18 1.752 1.649 2.487 2.495 5.411 3.129 8.323 1.025 4.705 1.563 9.499 1.924 14.3.193 2.573.335 5.153.427 7.731z" fill="#8B88CC"/><path d="M169.467 256.646a528.912 528.912 0 0 0-4.57-30.811c-.056-.317-.544-.204-.488.113a529.493 529.493 0 0 1 4.569 30.812c.038.319.526.204.489-.114zM168.065 255.766a243.805 243.805 0 0 0-22.895-28.19c-.222-.234-.59.104-.368.34a244.221 244.221 0 0 1 18.152 21.605 241.602 241.602 0 0 1 4.668 6.48c.182.261.627.03.443-.235zM166.058 256.324a247.34 247.34 0 0 0-32.302-10.673c-.311-.08-.466.398-.153.477a248.033 248.033 0 0 1 32.302 10.674c.299.122.45-.356.153-.478zM158.083 256.422a128.801 128.801 0 0 0-20.535-.869c-1.917.073-3.833.189-5.745.348-.317.026-.341.527-.02.501a128.564 128.564 0 0 1 26.279.521c.321.04.34-.461.021-.501z" fill="#4A54AE"/><path d="m167.75 228.193-2.059 4.192c-.14.287.28.56.422.27l2.059-4.192c.141-.286-.28-.559-.422-.27zM170.023 236.126l-2.839 5.152-4.723-3.682c-.255-.198-.523.226-.27.423l4.815 3.752c.1.078.201.059.272-.003.095.031.201.01.264-.104l2.903-5.268c.155-.282-.266-.553-.422-.27z" fill="#4A54AE"/><path d="m165.924 232.76-5.07-3.264c-.272-.174-.542.248-.27.423l5.069 3.262c.272.175.542-.248.271-.421zM170.364 242.714l-2.484 4.515a22.364 22.364 0 0 1-3.229-1.471c-.281-.157-.553.265-.271.422a23.247 23.247 0 0 0 3.535 1.598.23.23 0 0 0 .123.009.208.208 0 0 0 .17-.115 19793.2 19793.2 0 0 1 2.577-4.687c.155-.282-.266-.554-.421-.271zM160.375 245.286l.1-4.903c.006-.322-.495-.344-.501-.02l-.097 4.726-6.269-.249c-.323-.013-.344.488-.021.501l6.359.252a.23.23 0 0 0 .188-.078c.12-.001.237-.074.241-.229zM155.229 239.001c.002-.011.008-.02.009-.033l.307-5.376c.018-.322-.483-.343-.501-.021l-.302 5.276-4.739-.054c-.322-.004-.344.497-.021.501l5.011.057c.207.003.288-.202.236-.35zM150.688 229.219l-.632 3.935-5.106-.148c-.322-.01-.343.491-.02.5l5.248.152a.228.228 0 0 0 .134-.037.264.264 0 0 0 .208-.217l.668-4.165c.051-.318-.449-.335-.5-.02zM139.399 247.128l-1.377-3.479c-.05-.127-.228-.161-.339-.104-.131.068-.153.215-.104.34l1.33 3.359-3.033 2.108c-.111.076-.173.209-.104.338.058.109.227.181.339.104l3.078-2.139a.285.285 0 0 0 .128-.206c.108-.071.128-.204.082-.321zM145.265 249.002l-1.136-3.747c-.093-.307-.582-.197-.488.114l1.069 3.525-3.185 2.213c-.111.077-.172.209-.104.339.058.108.227.182.339.104l3.245-2.255c.155.01.318-.103.26-.293zM150.192 250.466l-1.256-3.603c-.044-.13-.158-.219-.301-.188-.121.027-.231.173-.187.3l1.206 3.461-3.574 2.222c-.273.17-.04.614.235.444l3.718-2.314a.247.247 0 0 0 .086-.091c.063-.061.102-.148.073-.231zM144.045 255.498a.225.225 0 0 0-.054-.224l-2.526-2.743c-.219-.236-.588.103-.369.34l2.522 2.737-2.657 3.164c-.088.104-.027.279.075.346.126.082.26.027.347-.075l2.709-3.227c.079-.094.036-.239-.047-.318zM137.211 255.618l-2.053-2.176c-.222-.235-.591.104-.369.339l1.882 1.995-2.196 3.046c-.19.263.233.531.422.271l2.218-3.078c.143-.062.235-.25.096-.397z" fill="#4A54AE"/><path d="M218.508 229.882c0 18.187-14.743 32.93-32.93 32.93-18.187 0-32.93-14.743-32.93-32.93 0-18.186 14.743-32.93 32.93-32.93 18.187 0 32.93 14.744 32.93 32.93z" fill="#F57F3C"/><path d="M178.106 200.378c-2.827 3.749-6.862 6.518-11.358 7.859a21.506 21.506 0 0 1-3.893.776c-.32.034-.277.532.043.498 4.766-.502 9.331-2.581 12.864-5.816a22.07 22.07 0 0 0 2.727-2.996c.194-.256-.188-.579-.383-.321zM191.56 199.621c-3.01 4.471-6.78 8.408-11.086 11.647a49.89 49.89 0 0 1-14.246 7.477 47.637 47.637 0 0 1-8.861 2.029c-.318.041-.276.54.044.498a48.934 48.934 0 0 0 15.543-4.769 50.482 50.482 0 0 0 13.171-9.49 47.969 47.969 0 0 0 5.818-7.071c.178-.265-.203-.588-.383-.321zM201.998 203.321a68.223 68.223 0 0 1-6.879 9.15 70.648 70.648 0 0 1-8.29 7.898 72.11 72.11 0 0 1-9.421 6.46 70.95 70.95 0 0 1-10.353 4.889 68.21 68.21 0 0 1-12.425 3.391c-.315.054-.274.553.043.498a69.156 69.156 0 0 0 11.158-2.91 71.6 71.6 0 0 0 10.526-4.707c3.4-1.86 6.65-3.995 9.708-6.376a71.757 71.757 0 0 0 8.5-7.791 68.75 68.75 0 0 0 7.885-10.289c.171-.272-.283-.483-.452-.213zM211.664 214.528a112.79 112.79 0 0 1-7.941 8.844 113.89 113.89 0 0 1-8.815 7.953 115.142 115.142 0 0 1-9.559 6.98 114.151 114.151 0 0 1-10.304 5.999 112.972 112.972 0 0 1-12.184 5.378c-.302.113-.129.582.174.469 3.73-1.39 7.386-2.978 10.949-4.754a115.122 115.122 0 0 0 29.029-20.623 112.864 112.864 0 0 0 9.035-9.924c.202-.25-.181-.572-.384-.322zM216.385 226.7a100.112 100.112 0 0 1-14.792 15.091 101.542 101.542 0 0 1-8.462 6.281 99.927 99.927 0 0 1-19.964 10.277c-.3.115-.127.584.175.47a100.738 100.738 0 0 0 9.73-4.302 101.927 101.927 0 0 0 25.721-18.574 100.03 100.03 0 0 0 7.976-8.921c.2-.252-.183-.574-.384-.322zM212.891 244.605a59.182 59.182 0 0 1-14.864 12.778 58.738 58.738 0 0 1-4.933 2.666c-.288.138-.117.608.174.469a59.784 59.784 0 0 0 16.175-11.408 59.457 59.457 0 0 0 3.831-4.183c.206-.249-.177-.57-.383-.322z" fill="#D25C1D"/><path d="m133.039 269.745 15.189-12.692h112.299l13.343 12.692H133.039z" fill="#6CCDBB"/><path d="M268.01 267.769c-1.16-1.72-3.147-2.754-5.217-2.779-1.192-.014-2.262.384-3.32.896-1.14.551-2.389 1.283-3.704 1.055-1.211-.21-2.104-1.161-3.175-1.686-.877-.43-1.806-.489-2.741-.221-2.018.578-3.829 2.597-6.068 2.144-1.146-.231-2.089-1.006-3.137-1.477a4.42 4.42 0 0 0-3.026-.257c-1.114.29-2.12.879-3.195 1.276-1.26.465-2.423.462-3.638-.142-1.027-.51-1.949-1.229-3.055-1.577-1.001-.315-2.036-.224-3.033.063-2.158.622-4.313 2.263-6.66 1.68-1.274-.316-2.337-1.159-3.554-1.622-1.015-.385-2.051-.434-3.106-.19-2.351.544-4.482 2.284-6.996 1.964-2.362-.301-4.418-1.982-6.865-1.799-2.261.169-3.948 1.902-6.052 2.534-1.23.369-2.348.104-3.438-.531-1.024-.597-1.963-1.36-3.129-1.67-2.076-.552-4.171.43-6.058 1.187-1.045.42-2.119.842-3.248.963-1.279.139-2.35-.259-3.454-.867-1.024-.565-2.041-1.114-3.247-1.06-1.103.047-2.134.524-3.131.956-1.177.511-2.398 1.023-3.71.824-1.143-.172-2.177-.744-3.206-1.238-.972-.467-1.988-.911-3.08-.964-1.062-.053-2.068.305-3.007.771-2.089 1.037-4.07 2.567-6.444 1.367-1.76-.89-3.526-2.513-5.594-1.392-.635.344-1 .899-1.027 1.621-.013.322.486.275.498-.043.04-1.081 1.27-1.471 2.18-1.451 1.208.026 2.208.845 3.207 1.429.915.536 1.895.913 2.971.804.963-.098 1.853-.514 2.698-.963.976-.517 1.926-1.113 2.988-1.442 1.219-.375 2.393-.161 3.547.327 1.945.82 3.766 2.085 5.976 1.597 2.346-.517 4.445-2.433 6.925-1.341 1.05.463 1.981 1.179 3.11 1.459.937.232 1.914.149 2.843-.076 2.124-.512 4.037-1.769 6.217-2.069 1.188-.164 2.263.089 3.297.684.998.575 1.91 1.33 3.034 1.651 2.084.598 3.942-.729 5.694-1.656 1.056-.558 2.172-1.009 3.39-.911 1.261.102 2.43.65 3.596 1.099 1.02.392 2.073.741 3.177.74 1.114 0 2.189-.374 3.207-.792 1.1-.453 2.184-1.007 3.356-1.255 1.281-.27 2.423.014 3.571.597 1.018.515 2.013 1.152 3.161 1.328.994.153 1.994-.056 2.932-.382 2.096-.727 4.298-2.238 6.582-1.364 1.087.415 2.004 1.165 3.069 1.624a4.458 4.458 0 0 0 2.983.219c2.271-.592 4.196-2.347 6.615-1.218.977.456 1.858 1.121 2.909 1.411.965.267 1.938.094 2.847-.287 1.868-.785 3.793-2.614 5.936-1.689 1.043.45 1.863 1.301 2.948 1.671 1.01.344 2.048.142 3.012-.252 1.11-.453 2.141-1.134 3.318-1.416 1.148-.276 2.392-.146 3.48.297a5.799 5.799 0 0 1 2.633 2.129c.18.267.589-.021.408-.288zM258.461 259.44c-2.275-.095-4.26 1.445-6.535 1.465-1.262.01-2.392-.404-3.507-.956-.902-.444-1.832-.944-2.854-1.028-2.145-.178-3.419 1.882-5.428 2.151-2.064.275-3.97-1.05-5.942-1.431-.973-.188-1.922-.11-2.865.181-1.095.338-2.13.9-3.267 1.1-2.206.388-4.243-.852-6.354-1.248-.94-.176-1.9-.169-2.811.145-.999.344-1.863.97-2.817 1.41-1.014.468-2.013.564-3.092.268-1.014-.276-1.95-.774-2.942-1.112-.939-.322-1.892-.473-2.877-.289-1.027.192-1.98.634-2.979.926-1.122.328-2.183.286-3.296-.053-1.021-.311-1.991-.774-3.031-1.023-.896-.215-1.804-.222-2.682.076-.997.338-1.862.973-2.856 1.321-2.155.754-4.053-.807-6.074-1.289-2.184-.521-4.057.692-6.136 1.094-2.203.427-3.927-.906-5.965-1.431-.862-.222-1.765-.227-2.589.139-.885.395-1.587 1.11-2.482 1.48-1.901.785-3.59-.999-5.379-1.347-.824-.161-1.591.018-2.324.407-.858.454-1.647 1.185-2.631 1.349-1.964.328-3.308-1.938-5.025-2.512-1.525-.511-3.277-.167-4.562.78a4.627 4.627 0 0 0-1.472 1.805c-.135.292.317.505.452.213.755-1.64 2.553-2.624 4.339-2.529 2.012.107 3.064 1.863 4.813 2.554 1.826.723 3.055-.667 4.596-1.359 1.882-.844 3.466.688 5.2 1.188.847.243 1.673.182 2.461-.218.836-.425 1.528-1.112 2.416-1.436 1.908-.693 3.856.78 5.626 1.293 2.058.597 3.842-.3 5.791-.849 1.157-.327 2.252-.336 3.396.05.922.311 1.789.762 2.717 1.055.878.277 1.778.379 2.677.134.962-.262 1.794-.838 2.7-1.233 2.128-.926 3.986.205 6.019.806.986.291 1.957.366 2.966.137.988-.225 1.911-.658 2.888-.92 1.12-.301 2.17-.198 3.253.19.894.32 1.747.745 2.657 1.025.894.274 1.805.36 2.716.111.94-.258 1.764-.807 2.618-1.256 1.017-.535 2.039-.822 3.195-.677 1.017.127 1.99.479 2.961.789.935.299 1.889.577 2.878.608 1.036.032 2.005-.276 2.962-.645 1.068-.41 2.143-.871 3.313-.817 1.035.049 2.025.417 2.99.767 1.748.633 3.546 1.215 5.312.313.859-.439 1.601-1.097 2.497-1.462 1.096-.446 2.159-.167 3.19.305.965.441 1.881.98 2.918 1.242a7 7 0 0 0 3.225.032c2.029-.454 4.082-1.814 6.206-1.066.835.293 1.569.895 1.712 1.809.05.316.548.275.498-.044-.254-1.616-1.876-2.424-3.384-2.488z" fill="#55C2AE"/><path d="M182.265 43.075c.175.115.185.37.165.58 0 .025-.005.045-.005.07a8.792 8.792 0 0 1-.58 2.39 9.726 9.726 0 0 1 2.47 2.295l.105-.075 7.515.025v4.275h.255c.695 12.28.655 24.605-.115 36.88-.395 6.265-.975 12.515-1.18 18.785-.085 2.54-.095 5.155.785 7.545.78 2.13 2.42 4.07 4.545 4.76 1.235 1.425 1.28 3.715.29 5.35-1.075 1.775-3.115 2.805-5.175 3.075-2.055.265-4.145-.14-6.14-.7a40.277 40.277 0 0 1-10.605-4.7c1.465-12.04 5.955-23.51 8.105-35.44.66-3.645 1.095-7.325 1.47-11.005a306.93 306.93 0 0 0 1.385-20.995c-.94-2.2-2.965-3.865-4.985-5.235-.27-.18-.54-.36-.745-.61-.185-.225-.3-.5-.405-.77a9.02 9.02 0 0 1-.34-1.08c-.25-.975-.315-1.985-.045-2.945.095-.34.245-.67.435-.975.55-.865 1.445-1.515 2.46-1.565.115-.005.235 0 .335.065z" fill="#F2AD3E"/><path d="M177.025 156.93c-.065 6.525-.995 13.315-4.81 18.795a18.416 18.416 0 0 1-2.97 3.35c-.175.18-.355.36-.545.53-3.235 2.945-7.895 4.245-12.19 3.395-2.22-.435-4.42-1.495-5.7-3.365-2.035-2.97-1.345-7.285-3.605-10.095-1.715-2.135-4.78-2.9-6.345-5.155-1.275-1.845-1.255-4.34-.565-6.48.685-2.14 1.955-4.03 3.075-5.98 1.12-1.945 2.12-4.055 2.175-6.305.065-2.7-1.24-5.295-1.175-8 .09-3.515 2.565-6.64 5.615-8.39.08-.045.165-.085.245-.13.41-.295 6.6-2.635 9.4-2.265 2.975.39 5.815 1.67 8.16 3.52 2.35 1.855 4.205 4.285 5.585 6.925 3.15 6.015 3.72 12.975 3.65 19.65z" fill="#D25C1D"/><path d="M168.503 167.199c-.808-1.556-1.894-2.948-3.163-4.155-1.294-1.231-2.775-2.182-4.283-3.124-1.527-.955-3.08-1.985-4.076-3.524-1.002-1.55-1.339-3.415-1.416-5.231-.163-3.87.938-7.933-.55-11.661-1.224-3.067-4.071-5.204-7.144-6.202-.393-.128-.79-.238-1.192-.332-.314-.073-.402.419-.09.492 3.118.727 6.18 2.606 7.652 5.537 1.761 3.506.812 7.538.808 11.278-.002 1.759.18 3.57.882 5.201.694 1.611 1.894 2.84 3.309 3.843 1.416 1.004 2.961 1.814 4.339 2.875 1.39 1.07 2.633 2.337 3.621 3.79 2.046 3.006 2.898 6.922 1.653 10.418a9.89 9.89 0 0 1-.545 1.244c-.149.286.304.499.452.214 1.728-3.324 1.442-7.39-.257-10.663z" fill="#B33E20"/><path d="M159.328 172.669c-.762-3.211-2.874-5.994-5.441-8.005-1.388-1.088-2.989-1.949-3.959-3.476-.873-1.374-1.188-3.031-1.208-4.638-.045-3.767 1.63-7.299 1.793-11.045.078-1.8-.175-3.659-1.048-5.258-.88-1.611-2.402-2.812-4.202-3.207-.315-.069-.404.423-.09.492 1.645.361 3.02 1.46 3.837 2.919.779 1.391 1.033 3.024 1.018 4.6-.034 3.639-1.612 7.055-1.788 10.68-.077 1.575.091 3.201.713 4.665.658 1.545 1.81 2.625 3.153 3.587 1.345.964 2.639 1.953 3.734 3.205 1.053 1.203 1.928 2.566 2.515 4.056 1.311 3.33 1.035 7.352-1.274 10.186-.204.25.179.572.383.322 2.049-2.515 2.603-5.969 1.864-9.083z" fill="#B33E20"/><path d="M174.86 228.505c-.56.57-1.12 1.135-1.685 1.695-.575.58-1.19 1.17-1.975 1.4-.305.09-.68.1-.89-.14-.235-.265-.135-.68-.01-1.015 1.62-4.395 4.855-8.095 6.195-12.575-.075-8.9-.155-17.79-.235-26.69-.025-2.95-.05-5.91-.395-8.84-.5-4.24-1.665-8.37-2.61-12.535a82.266 82.266 0 0 1-1.81-11.495c-.275-3.18-.345-6.495.885-9.435.275.49.705.89 1.13 1.275 2.98 2.705 5.96 5.415 8.94 8.12.95.865 1.93 1.75 3.105 2.245.235 7.91.365 15.835.405 23.755.01 2.93.015 5.865-.145 8.795-.2 3.75-.655 7.485-1.11 11.215l-1.875 15.275c.235.255.3.62.35.965.165 1.155.205 2.33.245 3.495.065 1.815.125 3.625.12 5.435-.005.465-.015.93-.025 1.395-.03 1.175-.105 2.355-.405 3.49-.29 1.08-.8 2.12-1.595 2.905l.02.02c.095.62.065 1.265-.09 1.875-.06.22-.15.46-.345.585-.22.14-.525.085-.745-.065-.22-.145-.37-.37-.515-.59-.01.35-.08.705-.205 1.035-.03.08-.07.16-.115.235l-.005.005c-.085.12-.195.215-.34.225-.225.01-.395-.2-.51-.395a6.787 6.787 0 0 1-.67-1.51c-.22.19-.315.475-.475.72-.16.24-.44.46-.715.37a.732.732 0 0 1-.285-.205c-.545-.58-.765-1.385-.935-2.165a31.504 31.504 0 0 1-.68-8.875z" fill="#F2AD3E"/><path d="M195.79 48.855c.345 1.395.905 2.78 1.93 3.78h-5.785V48.36l-14.285.19v4.275h-5.785c1.025-.995 1.59-2.385 1.93-3.78.37-1.495.52-3.07.23-4.59-.29-1.515-1.045-2.965-2.245-3.93h5.8v4.05l4.73-.06.285-.005 8.315-.11 1.095-.015V40.33h5.81c-1.21.965-1.965 2.42-2.255 3.935-.29 1.515-.14 3.09.23 4.59z" fill="#6467BA"/><path d="M197.845 40.33v12.305h-.125c-1.025-1-1.585-2.385-1.93-3.78-.37-1.5-.52-3.075-.23-4.59.29-1.515 1.045-2.97 2.255-3.935h.03zM174.025 44.455c.29 1.52.14 3.095-.23 4.59-.34 1.395-.905 2.785-1.93 3.78h-.12v-12.3h.035c1.2.965 1.955 2.415 2.245 3.93z" fill="#4A54AE"/><path d="M235.385 218.84c3.87-.04 7.74-.4 11.555-1.075-.05 2.68-.1 5.365-.145 8.045h-.005c-.425.04-.85-.155-1.235-.345A91.839 91.839 0 0 1 235.5 219.7c-.04-.285-.075-.575-.115-.86zM201.82 217.15c-1.395 2.3-2.78 4.605-4.155 6.92l-.17-.11a81.117 81.117 0 0 1-4.81-8.04c-.61-1.165-1.195-2.36-1.52-3.63.135.125.3.23.46.32a51.105 51.105 0 0 0 10.195 4.54z" fill="#F08026"/><path d="M239.575 246.96c-1.545-9.06-2.835-18.155-4.075-27.26a91.839 91.839 0 0 0 10.055 5.765c.385.19.81.385 1.235.345-.14 7.815-.285 15.635-.425 23.45h-.005c1.17 3.545 4.46 6.12 6.475 9.35.235.375.46.78.48 1.225.04 1.085-1.11 1.8-2.14 2.155-1.765.61-3.64.885-5.505.81-.755-.03-1.53-.125-2.185-.505-.93-.535-1.46-1.545-1.945-2.5-.48-.945-.955-1.885-1.435-2.825-.415-.815-.835-1.66-.925-2.57-.075-.81.115-1.615.25-2.42.28-1.655.33-3.355.145-5.02zM197.665 224.07c-3.97 6.69-7.82 13.45-11.36 20.375l-.025-.015c-1.145 2.115-2.3 4.245-3.04 6.535-.855 2.645-1.14 5.435-1.67 8.165-.225 1.18-.515 2.395-1.26 3.34-1.01 1.29-2.74 1.87-4.375 1.81-1.64-.065-3.21-.695-4.66-1.46-.715-.38-1.445-.825-1.865-1.525-.47-.785-.47-1.785-.195-2.655.275-.875.79-1.65 1.315-2.4 1.78-2.555 3.725-4.99 5.39-7.62.335-.53.655-1.07.965-1.62.395-1.215.795-2.425 1.215-3.63a197.526 197.526 0 0 1 4.72-12.29c.22-.52.45-1.035.675-1.555v-.075h.03a211.1 211.1 0 0 1 2.345-5.195l5.2-12.055c.03.03.06.065.095.09.325 1.27.91 2.465 1.52 3.63a81.117 81.117 0 0 0 4.81 8.04l.17.11z" fill="#F2AD3E"/><path d="M191.245 211.79c.475-1.095.945-2.195 1.42-3.29.375-.86.745-1.73.96-2.645.145-.62.23-1.3.66-1.77.17-.18.395-.34.445-.585.05-.26-.115-.505-.24-.74-.62-1.19-.07-2.845 1.14-3.425.29-.14.615-.23.845-.45.27-.265.355-.665.425-1.04a435.913 435.913 0 0 1 6.97-31.16c7.765 1.705 15.985 1.53 23.555-.885 4.43-1.41 8.625-3.6 12.285-6.46a35.818 35.818 0 0 0 6.735-6.85c2.56 3.685 2.87 8.495 2.875 13.005.02 10.7-1.09 21.365-2.26 32-.065.57-.11 1.215.255 1.66.29.355.78.495 1.105.82.97.975-.07 2.565-1.07 3.505 1.31.04 2.125 1.885 1.28 2.885-.37.44-.95.685-1.25 1.175-.255.41-.275.92-.28 1.4-.055 2.94-.105 5.885-.16 8.825a70.552 70.552 0 0 1-11.555 1.075c-2.17-15.965-4.2-31.95-7.2-47.78-7.675 15.955-17.175 30.935-26.365 46.09a51.105 51.105 0 0 1-10.195-4.54 2.442 2.442 0 0 1-.46-.32c-.02-.065-.035-.135-.05-.2.045-.1.09-.2.13-.3z" fill="#6467BA"/><path d="M181.729 228.507c-1.755.379-3.564.31-5.284-.203-.308-.092-.395.401-.09.492.663.198 1.343.331 2.029.399l-.634 9.04c-.022.318.47.411.492.09l.638-9.095c.255.013.51.017.766.014-.002.01-.007.017-.008.028a78.603 78.603 0 0 0 .064 9.935c.023.322.521.278.498-.043a77.61 77.61 0 0 1-.07-9.801.252.252 0 0 0-.034-.139c.453-.025.904-.083 1.352-.164a.278.278 0 0 0-.023.103l-.164 8.27c-.006.322.492.275.498-.044l.165-8.27a.204.204 0 0 0-.06-.154c.205-.136.143-.518-.135-.458z" fill="#F08026"/><path d="M191.294 47.414c-1.069.257-2.231-.36-2.956-1.157-.396.627-.951 1.198-1.743 1.182a1.801 1.801 0 0 1-1.157-.458 2.244 2.244 0 0 1-.411-.518c-.072-.119-.159-.38-.272-.515-.17.114-.334.33-.473.437a1.557 1.557 0 0 1-.668.32c-.468.081-.88-.155-1.075-.582-.391-.863-.164-2.123.365-2.874.195-.272.437-.483.704-.653.422-.426.956-.74 1.604-.889 1.409-.313 3.013-.37 4.427-.046.637.149 1.239.421 1.691.9.458.483.776 1.1.941 1.737.272 1.023.339 2.797-.977 3.116zM194.035 142.72c-.27 2.14-1.025 4.195-1.965 6.135-.85 1.75-1.985 3.53-3.79 4.25-1.665.665-3.56.28-5.24-.33-3.755-1.36-7.015-3.77-10.18-6.205-.21-.16-3.265-1.485-3.28-1.48-.525 2.53-2.44 4.72-4.875 5.58-.59.21-1.23.345-1.835.2-.72-.17-1.33-.75-1.535-1.465a2.147 2.147 0 0 1 .365-1.865c-.115-1.76-.58-3.48-1.13-5.16-1.045-3.205-2.455-6.415-4.93-8.695a12.032 12.032 0 0 0-4.56-2.63c-.31-.1-.655-.185-.96-.1 1.18-1.38 2.76-2.395 4.435-3.11 1.095-.465 2.235-.815 3.39-1.1h.01c.7-.175 1.4-.32 2.105-.46 2.955-.585 6-1.005 8.97-.495 1.84.315 3.655 1.035 5.135 2.155l-.075-1.305.12.03c2.875.725 5.725 1.565 8.53 2.53 2.04.7 4.075 1.47 5.91 2.605s3.475 2.67 4.44 4.6c.965 1.93 1.21 4.17.945 6.315z" fill="#F2AD3E"/><path d="M169.615 145.065c2.67-1.96 4.9-4.52 6.485-7.425.69-1.255 1.265-2.625 1.255-4.06a5.677 5.677 0 0 0-.265-1.635c1.875.175 3.755.345 5.63.52-2.745 3.865-5.62 7.785-9.62 10.315-1.145.735-2.405 1.355-3.325 2.35-.05-.02-.105-.04-.155-.055l-.005-.01zM168.035 131.765c.3.18.57.4.815.645.08.085.165.185.155.3-.005.125-.115.215-.225.28-.305.18-.665.26-1.02.3-.67.08-1.355.05-2.03.015-.97-.045-1.945-.095-2.9-.28 1.475-.92 2.645-2.275 4.085-3.255.21-.145.43-.28.685-.325.25-.04.535.03.68.24.105.15.12.34.12.52a3.455 3.455 0 0 1-.365 1.56zM168.335 137.82a2.313 2.313 0 0 1 2.315 2.315 2.313 2.313 0 0 1-2.315 2.315 2.313 2.313 0 0 1-2.315-2.315 2.313 2.313 0 0 1 2.315-2.315z" fill="#F08026"/><path d="M157.398 127.786a.764.764 0 0 0-.476-.304c-.195-.027-.409.001-.57.126-.147.114-.285.284-.304.476l-.153 1.525c-.021.204.004.398.125.569.105.148.295.28.477.305.195.027.409-.002.569-.126.147-.114.285-.284.304-.476l.154-1.526c.02-.203-.004-.397-.126-.569zM160.772 138.939a8.133 8.133 0 0 1-1.03-1.487c-.046-.092-.094-.183-.137-.277-.083-.18-.199-.33-.383-.417a.763.763 0 0 0-.582-.025c-.175.075-.34.202-.416.383-.075.177-.109.4-.025.582a8.783 8.783 0 0 0 1.348 2.108c.132.151.271.267.476.304a.763.763 0 0 0 .57-.126c.15-.116.277-.282.304-.476.026-.188.005-.42-.125-.569z" fill="#D25C1D"/><path d="M172.122 130.512c-.099-.306-.568-.131-.469.175.575 1.769.067 3.619-.597 5.285-.119.298.332.513.452.214.717-1.799 1.233-3.768.614-5.674zM163.306 136.272c-.208-.317-.595-.483-.948-.577a2.482 2.482 0 0 0-1.226.001c-.131.031-.19.206-.147.321.052.14.19.179.322.147.295-.07.608-.062.902.008.242.057.55.167.689.389.152.242-.035.559-.154.775a3.672 3.672 0 0 1-.567.756c-.094.097-.068.269.031.352.109.092.258.067.352-.031.272-.282.502-.603.683-.951.194-.374.313-.81.063-1.19zM161.29 128.151a3.602 3.602 0 0 0-1.109-.548c-.129-.039-.268.078-.291.2-.026.146.071.252.201.292.291.088.575.224.823.399.189.134.503.348.482.617-.02.252-.308.476-.487.623-.25.204-.523.372-.819.5-.294.127-.122.597.175.469a3.893 3.893 0 0 0 1.035-.648c.291-.257.6-.57.594-.988-.006-.393-.309-.698-.604-.916z" fill="#212948"/><path d="M204.76 155.485c2.63-2.385 5.265-4.775 7.895-7.165.475-.43 1.25-.86 1.68-.38.175.19.21.47.225.73.11 1.905-.305 3.84-1.185 5.53 1.315-.565 2.635-1.13 3.96-1.675 1.895-.78 3.925-1.535 5.935-1.16.435.085.885.235 1.155.58.47.605.19 1.485-.15 2.17a18.032 18.032 0 0 1-3.5 4.835c6.28.735 12.63.865 18.935.39-3.66 2.86-7.855 5.05-12.285 6.46-7.57 2.415-15.79 2.59-23.555.885a.666.666 0 0 1 .025-.095 11.285 11.285 0 0 1 2.56-4.11c-1.47-.395-1.875-2.72-.62-3.585-.825.005-1.62-.56-1.885-1.34-.265-.78.025-1.715.68-2.21l.13.14z" fill="#55C2AE"/><path d="M174.595 123.63a40.277 40.277 0 0 0 10.605 4.7c1.995.56 4.085.965 6.14.7 2.06-.27 4.1-1.3 5.175-3.075.99-1.635.945-3.925-.29-5.35-.1-.125-.21-.24-.335-.35 9.155 1.995 17.105 7.435 25.47 11.655.86.435 1.965.84 2.73.245.195-.155.35-.37.58-.475.885-.41 1.455.99 1.435 1.965.71-.29 1.42-.575 2.125-.865.8.735-.235 2.135.195 3.135.165.395.535.655.885.9a95.923 95.923 0 0 1 17.29 15.465c-.05.07-.105.14-.155.21a35.818 35.818 0 0 1-6.735 6.85 99.017 99.017 0 0 1-18.935-.39 18.032 18.032 0 0 0 3.5-4.835c.34-.685.62-1.565.15-2.17-.27-.345-.72-.495-1.155-.58-2.01-.375-4.04.38-5.935 1.16-1.325.545-2.645 1.11-3.96 1.675a10.714 10.714 0 0 0 1.185-5.53c-.015-.26-.05-.54-.225-.73-.43-.48-1.205-.05-1.68.38-2.63 2.39-5.265 4.78-7.895 7.165l-.13-.14-5.205.6c-.805.095-1.62.19-2.375.49-1.005.4-1.83 1.14-2.68 1.815-2.47 1.955-5.78 3.48-8.71 2.33-.05-.02-.105-.04-.155-.065-1.175-.495-2.155-1.38-3.105-2.245-2.98-2.705-5.96-5.415-8.94-8.12-.425-.385-.855-.785-1.13-1.275a2.18 2.18 0 0 1-.195-.425c-.23-.685.01-1.59.695-1.84l.03-.04c3.165 2.435 6.425 4.845 10.18 6.205 1.68.61 3.575.995 5.24.33 1.805-.72 2.94-2.5 3.79-4.25.94-1.94 1.695-3.995 1.965-6.135.265-2.145.02-4.385-.945-6.315-.965-1.93-2.605-3.465-4.44-4.6-1.835-1.135-3.87-1.905-5.91-2.605a105.597 105.597 0 0 0-8.53-2.53l.01-.04a4.94 4.94 0 0 1 .26-3.07.88.88 0 0 0 .115.07z" fill="#6CCDBB"/><path d="M203.653 128.232c-.252-.7-.677-1.273-1.036-1.914-.666-1.193.849-2.04 1.035-3.157.053-.317-.439-.408-.492-.09-.162.975-1.217 1.564-1.235 2.595-.01.598.374 1.071.674 1.553.348.56.645 1.18.766 1.833.217 1.176-.282 2.094-1.096 2.895-.682.671-1.484 1.241-2.012 2.052-.68 1.043-.566 2.22-.161 3.348.242.673.573 1.318.76 2.011a3.061 3.061 0 0 1-.111 1.988c-.477 1.186-1.425 2.095-2.09 3.169-.674 1.088-.967 2.28-.472 3.501.271.666.649 1.276.875 1.962.246.751.36 1.559.274 2.348-.146 1.327-.863 2.557-2.043 3.215-.28.157.01.564.289.408 2.244-1.25 2.698-4.099 1.876-6.353-.233-.639-.599-1.218-.841-1.852a2.786 2.786 0 0 1-.04-1.928c.426-1.26 1.423-2.208 2.123-3.309.328-.515.605-1.073.723-1.677.127-.651.027-1.302-.179-1.925-.423-1.277-1.356-2.676-.855-4.064.334-.925 1.169-1.56 1.87-2.2.722-.659 1.421-1.396 1.612-2.39.13-.676.017-1.377-.214-2.019zM208.531 128.391c-.301-.542-.679-1.047-.859-1.648-.159-.529-.191-1.206.257-1.608.236-.212-.049-.623-.289-.408-.738.661-.668 1.718-.301 2.563.44 1.01 1.398 1.919 1.162 3.109-.217 1.093-1.202 1.863-1.978 2.574-.751.688-1.553 1.526-1.687 2.584-.154 1.21.688 2.193 1.166 3.227.508 1.102.822 2.385.399 3.568-.406 1.136-1.464 1.659-2.299 2.435-.81.755-1.27 1.814-1.217 2.927.063 1.31.87 2.414 1.109 3.681a3.7 3.7 0 0 1-1.163 3.412c-.238.211.048.622.289.408a4.23 4.23 0 0 0 1.413-2.703c.123-1.156-.333-2.174-.741-3.226-.434-1.118-.604-2.261.015-3.35.571-1.006 1.696-1.475 2.436-2.329.723-.835.956-1.991.815-3.068-.165-1.251-.788-2.281-1.358-3.378-.283-.545-.476-1.124-.332-1.739.127-.544.466-1.014.831-1.423.736-.827 1.681-1.447 2.301-2.38.311-.468.527-.995.538-1.562.013-.6-.221-1.151-.507-1.666zM240.513 146.52c-.673-.501-1.593-.265-2.142.314-.68.718-.745 1.775-1.01 2.677-.141.478-.361.958-.766 1.268-.356.271-.789.385-1.226.434-.906.102-1.828-.021-2.724.181-1.865.42-2.717 2.262-3.441 3.839-.392.855-.813 1.739-1.504 2.396-.764.726-1.785.951-2.803 1.041-1.854.165-4.363.096-5.296 2.091-.136.291.316.505.452.213.795-1.7 3.041-1.668 4.626-1.785.946-.07 1.909-.212 2.733-.713.745-.453 1.278-1.169 1.696-1.921.83-1.492 1.301-3.5 2.899-4.395 1.506-.843 3.51.12 4.911-.999.822-.657.964-1.72 1.207-2.676.13-.511.316-1.081.738-1.428.362-.299.922-.456 1.329-.154.258.191.581-.191.321-.383zM243.593 149.197c-1.282-.486-2.769.033-3.439 1.236-.363.65-.47 1.401-.744 2.087a2.51 2.51 0 0 1-1.522 1.488c-1.409.524-2.968.211-4.394.677a3.321 3.321 0 0 0-1.68 1.215c-.395.548-.647 1.176-.907 1.795-.31.74-.642 1.474-1.232 2.037a3.909 3.909 0 0 1-2.383 1.049c-.321.025-.278.523.044.498a4.412 4.412 0 0 0 3.443-2.153c.685-1.153.906-2.718 2.044-3.551 1.245-.911 2.947-.595 4.379-.868.658-.125 1.322-.344 1.838-.786.535-.458.806-1.08 1.012-1.738.244-.781.42-1.649 1.102-2.179.623-.485 1.483-.637 2.225-.355.299.114.514-.338.214-.452z" fill="#55C2AE"/><path d="m304.085 224.492-3.613 30.947-38.836-.406-5.692-.061-2.433-30.48h50.574z" fill="#C9CDDB"/><path d="m301.596 227.099-2.113 27.016-5.13-.035-14.174-.098-3.655-.025-14.729-.103-4.601-.031-1.984-26.724h46.386z" fill="#C2EBE9"/><path d="M277.328 224.885a.79.79 0 1 1 0 1.58.79.79 0 0 1 0-1.58zM303.342 254.877l.077.391-1.265 1.957H253.39l-1.252-2.348h51.204z" fill="#9CA0B2"/><path d="M300.25 254.877h-44.107c-.162 0-.139.251.022.251h44.107c.162 0 .139-.251-.022-.251z" fill="#9CA0B2"/><path d="m259.325 251.315 36.174.514 3.793-23.611-42.4.513 2.433 22.584zm36.526.933-.179-.002-36.719-.522-2.522-23.402 43.349-.524-3.929 24.45z" fill="#6CCDBB"/><path d="m293.157 249.345-32.886-.307.004-.415 32.886.307-.004.415zM285.471 238.997a8.297 8.297 0 1 1-16.593 0 8.297 8.297 0 0 1 16.593 0z" fill="#6CCDBB"/><path d="M274.296 235.615v8.529l7.491-4.841-7.491-3.688z" fill="#fff"/><path d="M128.605 235.129c1.558-.385 3.104-1.01 4.221-2.155v6.459h-4.773l.212 15.952h4.773v6.459c-1.111-1.145-2.663-1.775-4.22-2.156-1.67-.413-3.428-.58-5.126-.257-1.691.325-3.31 1.167-4.388 2.507v-6.476h4.522l-.066-5.282-.006-.317-.123-9.285-.017-1.223h-4.528v-6.487c1.078 1.351 2.702 2.194 4.394 2.518 1.692.324 3.451.157 5.125-.257z" fill="#6CCDBB"/><path d="M119.086 232.835h13.74v.139c-1.116 1.145-2.663 1.77-4.221 2.155-1.674.414-3.433.581-5.125.257-1.692-.324-3.316-1.167-4.394-2.518v-.033zM123.692 259.431c1.698-.323 3.456-.156 5.126.258 1.557.38 3.109 1.01 4.221 2.155v.134h-13.735v-.04c1.078-1.34 2.697-2.182 4.388-2.507z" fill="#55C2AE"/><path d="M157.171 257.545c.385 1.558 1.011 3.104 2.155 4.22h-6.459v-4.773l-15.951.212v4.774h-6.46c1.145-1.112 1.776-2.664 2.156-4.221.413-1.67.58-3.428.256-5.125-.323-1.692-1.167-3.31-2.507-4.388h6.477v4.521l5.281-.067.319-.004 9.284-.123 1.223-.017v-4.528h6.487c-1.351 1.078-2.194 2.702-2.518 4.394-.324 1.692-.156 3.45.257 5.125z" fill="#6467BA"/><path d="M159.465 248.026v13.739h-.139c-1.145-1.116-1.77-2.663-2.155-4.22-.413-1.675-.581-3.434-.257-5.126.324-1.691 1.167-3.316 2.518-4.393h.033zM132.868 252.632c.324 1.697.157 3.455-.256 5.125-.38 1.557-1.011 3.109-2.156 4.221h-.134v-13.734h.039c1.34 1.077 2.184 2.696 2.507 4.388z" fill="#4A54AE"/><path d="M136.11 146.861c-5.258 1.322-9.87 4.698-13.001 9.091a24.052 24.052 0 0 0-3.507 7.19c-.792 2.708-1.007 5.5-.768 8.306.278 3.259 1.007 6.472 1.13 9.746.059 1.599-.042 3.213-.453 4.765a11.902 11.902 0 0 1-2.179 4.31c-4.003 5.085-10.684 7.003-14.906 11.86-1.82 2.093-2.986 4.621-2.834 7.432.129 2.376 1.157 4.863 3.239 6.161a5.69 5.69 0 0 0 1.603.671c.312.079.399-.413.088-.492-2.45-.627-3.906-2.934-4.312-5.312a9.12 9.12 0 0 1 .133-3.741c.347-1.388 1.088-2.667 1.963-3.788 3.894-4.989 10.364-6.94 14.62-11.546 1.014-1.098 1.882-2.344 2.476-3.72.598-1.385.918-2.873 1.026-4.374.228-3.164-.376-6.308-.8-9.43-.394-2.9-.583-5.786-.034-8.68.493-2.6 1.467-5.098 2.816-7.373 2.7-4.559 6.952-8.253 11.966-10.032a20.779 20.779 0 0 1 1.906-.574c.312-.079.138-.548-.172-.47zM294.644 182.706a13.553 13.553 0 0 0-4.873-4.489c-2.156-1.17-4.535-1.831-6.856-2.588-2.282-.744-4.601-1.596-6.479-3.138-1.946-1.599-3.174-3.836-3.979-6.189-1.696-4.954-1.578-10.455-4.032-15.161-1.093-2.097-2.676-3.832-4.816-4.883-1.897-.933-4.186-1.303-6.202-.526a6.144 6.144 0 0 0-1.371.748c-.261.188.027.597.288.408 1.762-1.269 4.035-1.322 6.033-.616 2.161.763 3.921 2.267 5.12 4.204 2.752 4.447 2.729 9.919 4.141 14.823.666 2.312 1.65 4.598 3.277 6.404 1.577 1.751 3.652 2.868 5.833 3.692 2.232.844 4.556 1.426 6.772 2.317 2.124.855 4.07 2.03 5.588 3.768 2.85 3.263 4.123 7.897 3.181 12.143-.118.53-.27 1.05-.457 1.559-.11.301.342.516.452.214 1.533-4.186.808-8.989-1.62-12.69z" fill="#F2AD3E"/></svg>