<svg width="177" height="37" viewBox="0 0 177 37" fill="none" xmlns="http://www.w3.org/2000/svg">
<path d="M95.75 29H91.2529L83.1523 15.1719V29H78.9482V7.99414H83.4453L91.5459 21.8369V7.99414H95.75V29ZM112.024 20.6064V16.4023C112.024 15.8262 111.912 15.2842 111.688 14.7764C111.473 14.2588 111.175 13.8096 110.794 13.4287C110.413 13.0479 109.964 12.75 109.446 12.5352C108.938 12.3105 108.396 12.1982 107.82 12.1982C107.244 12.1982 106.697 12.3105 106.18 12.5352C105.672 12.75 105.228 13.0479 104.847 13.4287C104.466 13.8096 104.163 14.2588 103.938 14.7764C103.724 15.2842 103.616 15.8262 103.616 16.4023V20.6064H112.024ZM116.229 29H112.024V24.7959H103.616V29H99.4268V16.4023C99.4268 15.2402 99.6465 14.1514 100.086 13.1357C100.525 12.1104 101.121 11.2168 101.873 10.4551C102.635 9.69336 103.523 9.09277 104.539 8.65332C105.564 8.21387 106.658 7.99414 107.82 7.99414C108.982 7.99414 110.071 8.21387 111.087 8.65332C112.112 9.09277 113.006 9.69336 113.768 10.4551C114.529 11.2168 115.13 12.1104 115.569 13.1357C116.009 14.1514 116.229 15.2402 116.229 16.4023V29ZM107.864 6.76367L106.209 4.58105L110.56 0.523438L112.962 3.58496L107.864 6.76367ZM118.646 14.293C118.646 13.4238 118.812 12.6084 119.144 11.8467C119.476 11.085 119.925 10.4209 120.491 9.85449C121.067 9.27832 121.736 8.82422 122.498 8.49219C123.26 8.16016 124.075 7.99414 124.944 7.99414H134.583V12.1982H124.944C124.651 12.1982 124.378 12.252 124.124 12.3594C123.87 12.4668 123.646 12.6182 123.45 12.8135C123.265 12.999 123.118 13.2188 123.011 13.4727C122.903 13.7266 122.85 14 122.85 14.293C122.85 14.5859 122.903 14.8643 123.011 15.1279C123.118 15.3818 123.265 15.6064 123.45 15.8018C123.646 15.9873 123.87 16.1338 124.124 16.2412C124.378 16.3486 124.651 16.4023 124.944 16.4023H129.148C130.018 16.4023 130.833 16.5684 131.595 16.9004C132.366 17.2227 133.035 17.6719 133.602 18.248C134.178 18.8145 134.627 19.4834 134.949 20.2549C135.281 21.0166 135.447 21.832 135.447 22.7012C135.447 23.5703 135.281 24.3857 134.949 25.1475C134.627 25.9092 134.178 26.5781 133.602 27.1543C133.035 27.7207 132.366 28.1699 131.595 28.502C130.833 28.834 130.018 29 129.148 29H119.817V24.7959H129.148C129.441 24.7959 129.715 24.7422 129.969 24.6348C130.223 24.5273 130.442 24.3809 130.628 24.1953C130.823 24 130.975 23.7754 131.082 23.5215C131.189 23.2676 131.243 22.9941 131.243 22.7012C131.243 22.4082 131.189 22.1348 131.082 21.8809C130.975 21.627 130.823 21.4072 130.628 21.2217C130.442 21.0264 130.223 20.875 129.969 20.7676C129.715 20.6602 129.441 20.6064 129.148 20.6064H124.944C124.075 20.6064 123.26 20.4404 122.498 20.1084C121.736 19.7764 121.067 19.3271 120.491 18.7607C119.925 18.1846 119.476 17.5156 119.144 16.7539C118.812 15.9824 118.646 15.1621 118.646 14.293ZM142.42 29H138.216V7.99414H142.42V29ZM158.694 20.6064V16.4023C158.694 15.8262 158.582 15.2842 158.357 14.7764C158.143 14.2588 157.845 13.8096 157.464 13.4287C157.083 13.0479 156.634 12.75 156.116 12.5352C155.608 12.3105 155.066 12.1982 154.49 12.1982C153.914 12.1982 153.367 12.3105 152.85 12.5352C152.342 12.75 151.897 13.0479 151.517 13.4287C151.136 13.8096 150.833 14.2588 150.608 14.7764C150.394 15.2842 150.286 15.8262 150.286 16.4023V20.6064H158.694ZM162.898 29H158.694V24.7959H150.286V29H146.097V16.4023C146.097 15.2402 146.316 14.1514 146.756 13.1357C147.195 12.1104 147.791 11.2168 148.543 10.4551C149.305 9.69336 150.193 9.09277 151.209 8.65332C152.234 8.21387 153.328 7.99414 154.49 7.99414C155.652 7.99414 156.741 8.21387 157.757 8.65332C158.782 9.09277 159.676 9.69336 160.438 10.4551C161.199 11.2168 161.8 12.1104 162.239 13.1357C162.679 14.1514 162.898 15.2402 162.898 16.4023V29Z" fill="white"/>
<path d="M31.6621 26.876C30.6855 27.7061 29.5967 28.3457 28.3955 28.7949C27.1943 29.2344 25.9443 29.4541 24.6455 29.4541C23.6494 29.4541 22.6875 29.3223 21.7598 29.0586C20.8418 28.8047 19.9824 28.4434 19.1816 27.9746C18.3809 27.4961 17.6484 26.9297 16.9844 26.2754C16.3203 25.6113 15.7539 24.8789 15.2852 24.0781C14.8164 23.2676 14.4502 22.3984 14.1865 21.4707C13.9326 20.543 13.8057 19.5811 13.8057 18.585C13.8057 17.5889 13.9326 16.6318 14.1865 15.7139C14.4502 14.7959 14.8164 13.9365 15.2852 13.1357C15.7539 12.3252 16.3203 11.5928 16.9844 10.9385C17.6484 10.2744 18.3809 9.70801 19.1816 9.23926C19.9824 8.77051 20.8418 8.40918 21.7598 8.15527C22.6875 7.8916 23.6494 7.75977 24.6455 7.75977C25.9443 7.75977 27.1943 7.98437 28.3955 8.43359C29.5967 8.87305 30.6855 9.50781 31.6621 10.3379L29.4648 14C28.8301 13.3555 28.0977 12.8525 27.2676 12.4912C26.4375 12.1201 25.5635 11.9346 24.6455 11.9346C23.7275 11.9346 22.8633 12.1104 22.0527 12.4619C21.252 12.8135 20.5488 13.292 19.9434 13.8975C19.3379 14.4932 18.8594 15.1963 18.5078 16.0068C18.1562 16.8076 17.9805 17.667 17.9805 18.585C17.9805 19.5127 18.1562 20.3818 18.5078 21.1924C18.8594 22.0029 19.3379 22.7109 19.9434 23.3164C20.5488 23.9219 21.252 24.4004 22.0527 24.752C22.8633 25.1035 23.7275 25.2793 24.6455 25.2793C25.1729 25.2793 25.6855 25.2158 26.1836 25.0889C26.6816 24.9619 27.1553 24.7861 27.6045 24.5615V18.585H31.6621V26.876ZM44.3477 29H40.1582V22.4229C39.2305 22.1885 38.376 21.8125 37.5947 21.2949C36.8232 20.7773 36.1592 20.1621 35.6025 19.4492C35.0459 18.7266 34.6113 17.9307 34.2988 17.0615C33.9961 16.1826 33.8447 15.2598 33.8447 14.293V7.99414H38.0488V14.293C38.0488 14.8691 38.1562 15.416 38.3711 15.9336C38.5957 16.4414 38.8984 16.8857 39.2793 17.2666C39.6602 17.6475 40.1045 17.9502 40.6123 18.1748C41.1299 18.3896 41.6768 18.4971 42.2529 18.4971C42.8291 18.4971 43.3711 18.3896 43.8789 18.1748C44.3965 17.9502 44.8457 17.6475 45.2266 17.2666C45.6074 16.8857 45.9053 16.4414 46.1201 15.9336C46.3447 15.416 46.457 14.8691 46.457 14.293V7.99414H50.6465V14.293C50.6465 15.2598 50.4902 16.1826 50.1777 17.0615C49.875 17.9307 49.4453 18.7266 48.8887 19.4492C48.332 20.1621 47.668 20.7773 46.8965 21.2949C46.125 21.8125 45.2754 22.1885 44.3477 22.4229V29ZM74.2012 29H70.0117V14C70.0117 13.707 69.9531 13.4336 69.8359 13.1797C69.7285 12.9258 69.5771 12.7061 69.3818 12.5205C69.1963 12.3252 68.9766 12.1738 68.7227 12.0664C68.4688 11.959 68.1953 11.9053 67.9023 11.9053C67.6094 11.9053 67.3359 11.959 67.082 12.0664C66.8281 12.1738 66.6035 12.3252 66.4082 12.5205C66.2227 12.7061 66.0762 12.9258 65.9688 13.1797C65.8613 13.4336 65.8076 13.707 65.8076 14V29H61.6035V14C61.6035 13.707 61.5498 13.4336 61.4424 13.1797C61.335 12.9258 61.1836 12.7061 60.9883 12.5205C60.8027 12.3252 60.583 12.1738 60.3291 12.0664C60.0752 11.959 59.8018 11.9053 59.5088 11.9053C59.2158 11.9053 58.9424 11.959 58.6885 12.0664C58.4346 12.1738 58.21 12.3252 58.0146 12.5205C57.8291 12.7061 57.6826 12.9258 57.5752 13.1797C57.4678 13.4336 57.4141 13.707 57.4141 14V29H53.21V14C53.21 13.1309 53.3711 12.3154 53.6934 11.5537C54.0254 10.7822 54.4746 10.1133 55.041 9.54688C55.6172 8.9707 56.2861 8.52148 57.0479 8.19922C57.8193 7.86719 58.6396 7.70117 59.5088 7.70117C60.29 7.70117 61.042 7.84277 61.7646 8.12598C62.4873 8.39941 63.1367 8.7998 63.7129 9.32715C64.2891 8.7998 64.9336 8.39941 65.6465 8.12598C66.3691 7.84277 67.1211 7.70117 67.9023 7.70117C68.7715 7.70117 69.5869 7.86719 70.3486 8.19922C71.1201 8.52148 71.7891 8.9707 72.3555 9.54688C72.9316 10.1133 73.3809 10.7822 73.7031 11.5537C74.0352 12.3154 74.2012 13.1309 74.2012 14V29Z" fill="#0EFF00"/>
<line x1="2.5" y1="-2.5" x2="34.5" y2="-2.5" transform="matrix(0 1 1 0 171 0)" stroke="#0EFF00" stroke-width="5" stroke-linecap="round"/>
<line x1="2.5" y1="-2.5" x2="27.1" y2="-2.5" transform="matrix(-3.54417e-08 1 1 5.39107e-08 177 3.7)" stroke="#0EFF00" stroke-width="5" stroke-linecap="round"/>
<line x1="8.5" y1="2.5" x2="8.5" y2="34.5" stroke="#0EFF00" stroke-width="5" stroke-linecap="round"/>
<line x1="2.5" y1="6.2" x2="2.5" y2="30.8" stroke="#0EFF00" stroke-width="5" stroke-linecap="round"/>
</svg>