<?xml version="1.0" standalone="no"?>
<!DOCTYPE svg PUBLIC "-//W3C//DTD SVG 20010904//EN"
 "http://www.w3.org/TR/2001/REC-SVG-20010904/DTD/svg10.dtd">
<svg version="1.0" xmlns="http://www.w3.org/2000/svg"
 width="75.000000pt" height="75.000000pt" viewBox="0 0 512.000000 512.000000"
 preserveAspectRatio="xMidYMid meet">

<g transform="translate(0.000000,512.000000) scale(0.100000,-0.100000)"
fill="#FFFFFF" stroke="none">
<path d="M2149 5105 c-262 -49 -505 -216 -634 -436 -49 -83 -51 -86 -105 -102
-112 -34 -215 -145 -245 -264 -14 -53 -15 -142 -13 -635 l3 -573 33 -67 c39
-80 113 -150 183 -175 42 -15 49 -22 49 -44 0 -15 7 -66 15 -115 59 -345 270
-645 568 -809 62 -34 67 -39 67 -70 0 -53 -35 -152 -71 -198 -71 -93 -181
-147 -297 -147 -324 -1 -635 -199 -778 -495 -81 -167 -87 -204 -92 -582 l-4
-333 32 -31 c27 -27 36 -31 67 -26 69 12 67 2 74 370 7 371 10 393 79 532 121
246 347 382 660 398 l85 4 60 -275 c37 -167 67 -284 77 -298 20 -25 62 -36 94
-24 12 5 61 54 109 109 49 56 89 100 90 99 1 -2 -21 -190 -50 -418 -55 -437
-55 -455 -12 -485 45 -32 100 -13 123 41 l14 34 230 0 230 0 14 -34 c23 -54
78 -73 123 -41 43 30 43 48 -12 485 -29 228 -51 416 -50 418 1 1 41 -43 90
-99 48 -55 98 -104 110 -109 32 -12 76 2 96 31 9 13 42 144 75 294 32 149 58
271 58 272 4 9 257 -22 311 -38 239 -72 415 -248 486 -489 20 -68 22 -104 28
-407 7 -368 5 -358 74 -370 31 -5 40 -1 67 26 l32 31 -4 333 c-4 300 -7 340
-26 412 -29 107 -99 246 -168 335 -155 198 -425 330 -675 330 -75 0 -153 24
-216 67 -29 19 -53 38 -53 42 0 4 -20 28 -43 54 -34 37 -51 47 -75 47 -46 0
-86 -39 -86 -83 0 -43 62 -128 135 -184 27 -20 49 -42 49 -48 0 -16 -80 -378
-84 -382 -4 -4 -186 201 -200 225 -4 6 -2 27 4 45 17 45 0 84 -44 102 -51 21
-72 9 -160 -92 -43 -48 -82 -88 -87 -88 -6 0 -92 92 -193 204 l-183 204 19 49
c10 27 23 72 29 100 10 44 14 49 33 44 170 -46 421 -47 586 -1 319 88 586 307
733 600 70 141 117 333 117 480 l0 72 40 18 c43 19 103 79 122 121 8 17 19 24
39 24 18 0 36 10 54 31 l26 32 -4 586 c-3 567 -4 589 -25 670 -89 336 -339
589 -679 683 -75 21 -99 22 -563 24 -382 2 -501 0 -561 -11z m71 -1230 c251
-137 537 -240 831 -299 171 -35 200 -34 233 5 29 34 23 33 199 13 l47 -6 0
-393 c0 -429 -6 -496 -58 -641 -83 -237 -259 -433 -487 -544 -155 -76 -239
-94 -425 -94 -186 0 -270 18 -425 94 -228 111 -404 307 -487 544 -52 146 -58
211 -58 647 l0 399 28 5 c15 4 47 11 71 16 127 29 244 125 304 250 19 41 38
82 41 92 5 16 9 15 47 -8 22 -15 85 -51 139 -80z m40 -2637 l20 -26 -101 -117
c-56 -64 -103 -115 -105 -113 -4 5 -84 365 -84 381 0 7 19 28 43 46 l42 33 83
-89 c45 -48 92 -100 102 -115z"/>
</g>
</svg>
