<?xml version="1.0" standalone="no"?>
<!DOCTYPE svg PUBLIC "-//W3C//DTD SVG 20010904//EN"
 "http://www.w3.org/TR/2001/REC-SVG-20010904/DTD/svg10.dtd">
<svg version="1.0" xmlns="http://www.w3.org/2000/svg"
 width="75.000000pt" height="75.000000pt" viewBox="0 0 512.000000 512.000000"
 preserveAspectRatio="xMidYMid meet">

<g transform="translate(0.000000,512.000000) scale(0.100000,-0.100000)"
fill="#FFFFFF" stroke="none">
<path d="M2135 5109 c-91 -13 -230 -56 -320 -98 -125 -59 -231 -134 -335 -241
-183 -186 -290 -412 -320 -670 -6 -51 -10 -633 -10 -1461 l0 -1375 -29 -21
c-52 -39 -154 -177 -198 -268 -80 -167 -86 -204 -91 -582 l-4 -333 30 -30 c17
-16 40 -30 52 -30 34 0 79 28 85 53 2 12 6 161 8 332 5 351 10 384 79 525 34
69 59 102 133 175 138 139 276 201 470 212 55 3 126 12 159 20 32 8 60 13 61
11 2 -2 47 -286 100 -633 102 -666 102 -669 158 -689 38 -14 94 14 103 51 5
18 -22 223 -73 553 -45 289 -80 526 -78 528 2 2 97 -70 211 -158 190 -148 211
-161 241 -157 20 4 82 44 170 112 151 116 173 146 152 197 -14 34 -62 62 -94
54 -12 -3 -69 -42 -125 -86 -57 -44 -106 -80 -110 -80 -3 0 -114 83 -246 185
-144 112 -240 193 -242 205 -2 12 15 43 44 77 55 68 88 134 111 227 14 60 18
67 37 62 169 -46 422 -47 584 -2 132 37 224 77 328 144 213 138 376 341 459
574 60 169 65 218 65 634 0 432 7 403 -110 444 -186 64 -343 207 -427 388 -28
60 -41 76 -69 88 -50 21 -79 4 -166 -101 -285 -342 -667 -577 -1122 -689 -74
-18 -105 -31 -118 -48 -27 -35 -23 -75 13 -110 28 -29 34 -30 83 -24 75 8 250
60 379 112 295 119 560 294 782 519 l101 102 24 -41 c40 -65 178 -203 254
-254 39 -26 101 -61 138 -77 l67 -30 1 -301 c0 -331 -8 -411 -58 -550 -105
-298 -362 -533 -672 -616 -124 -33 -358 -33 -480 0 -417 113 -700 463 -726
897 -7 109 -19 140 -62 156 -33 13 -66 5 -92 -23 -17 -18 -20 -35 -20 -109 0
-214 72 -439 201 -632 63 -93 211 -236 317 -305 51 -33 102 -64 113 -67 19 -6
20 -12 14 -58 -28 -202 -175 -326 -388 -327 -72 0 -191 -24 -275 -56 -35 -13
-69 -24 -74 -24 -5 0 -7 534 -5 1358 4 1465 1 1386 55 1542 111 320 380 558
717 636 71 17 125 19 470 19 423 0 460 -4 615 -62 144 -53 306 -172 406 -298
125 -156 196 -334 214 -539 6 -65 10 -592 10 -1268 l0 -1157 26 -20 c38 -30
80 -27 115 8 l29 29 0 1194 c0 808 -4 1222 -11 1283 -63 510 -471 923 -983
994 -91 13 -763 13 -851 0z"/>
<path d="M2973 1658 c-46 -51 -40 -85 32 -173 l47 -58 -103 -671 c-65 -425
-100 -681 -95 -699 9 -37 65 -65 103 -51 55 19 56 23 159 689 53 347 97 631
99 633 1 1 29 -4 61 -12 32 -8 103 -17 156 -20 370 -23 643 -285 678 -648 5
-51 10 -206 10 -344 0 -283 2 -289 72 -301 32 -5 41 -1 68 26 l32 31 -4 333
c-4 300 -7 340 -26 412 -50 186 -167 363 -315 479 -150 117 -293 171 -492 185
-173 13 -220 33 -316 132 -66 69 -80 79 -111 79 -23 0 -41 -7 -55 -22z"/>
</g>
</svg>
